<!-- Generator: Adobe Illustrator 25.0.0, SVG Export Plug-In  -->
<svg version="1.1" xmlns="http://www.w3.org/2000/svg" xmlns:xlink="http://www.w3.org/1999/xlink" x="0px" y="0px"
	 width="2897.2px" height="1771px" viewBox="0 0 2897.2 1771" style="overflow:visible;enable-background:new 0 0 2897.2 1771;"
	 xml:space="preserve">
<style type="text/css">
	.st0{fill:#191919;}
	.st1{fill:#282828;}
	.st2{fill:#383838;}
</style>
<defs>
</defs>
<rect class="st0" width="2897.2" height="1771"/>
<path class="st1" d="M2659.3,1771H0v-476l2-0.7c92.8-35.1,192.1-41.2,287.7-17.7l742.7,182.4c80.7,19.8,163.2,28.2,245.7,25.1
	l312.4-12c108.9-4.2,217.7,11.6,322.1,46.9L2659.3,1771z"/>
<path class="st1" d="M2897.2,0v698.7l-137.9,41.5c-183.6,55.3-381.8,16.2-532.7-104.9l-121.7-97.7
	c-143.6-115.2-315.4-187.1-496.3-207.6l-115-13c-108-12.2-213.8-39.6-314.6-81.5L612.7,0H2897.2z"/>
<path class="st2" d="M2897.2,0v616.5l-226.1,70.1c-120.5,37.4-251.7,0.6-335.2-94l-80.2-90.8c-102.1-115.6-244.6-187.8-398.2-201.7
	l-201.4-18.2c-140-12.6-275.6-55.3-397.7-125L983.8,0H2897.2z"/>
<g>
	<path class="st2" d="M0,1474l382.7-49.2c127.1-16.3,256.2-2.7,377.1,39.9l230.4,81.1c122.1,43,250.5,64.9,379.9,64.9h263.6
		c114.7,0,229.2,12.2,341.3,36.5l573.4,123.8H0V1474z"/>
</g>
</svg>
